Coordinates
version=1
nRows=60
nColumns=12
inDegrees=yes

Units are S.I. units (second, meters, Newtons, ...)
Angles are in degrees

endheader
time	SC_y	SC_z	SC_x	AC_y	AC_z	AC_x	GH_y	GH_z	GH_yy	EL_x	PS_y
       0.0              -27.36          2.256          41.79          68.28          4.681         -7.491         -78.23          48.63         -41.41          113.3          18.15
   0.02766              -27.37          2.259          41.79          68.28          4.678          -7.49         -78.21          48.62         -41.43          113.3          18.15
   0.05533              -27.37          2.262          41.79          68.28          4.675         -7.489         -78.19          48.62         -41.45          113.3          18.15
   0.08299              -27.37          2.265          41.78          68.28          4.672         -7.488         -78.17          48.61         -41.46          113.3          18.15
    0.1107              -27.37          2.268          41.78          68.27          4.669         -7.487         -78.15           48.6         -41.48          113.3          18.15
    0.1383              -27.37          2.271          41.78          68.27          4.665         -7.486         -78.12          48.59         -41.51          113.3          18.15
     0.166              -27.38          2.275          41.77          68.26          4.661         -7.485          -78.1          48.59         -41.53          113.3          18.15
    0.1936              -27.38          2.279          41.77          68.26          4.657         -7.483         -78.07          48.58         -41.55          113.3          18.15
    0.2213              -27.38          2.283          41.76          68.25          4.653         -7.482         -78.04          48.57         -41.58          113.3          18.15
     0.249              -27.38          2.288          41.76          68.25          4.648          -7.48         -78.01          48.56         -41.61          113.3          18.15
    0.2766              -27.39          2.292          41.75          68.24          4.643         -7.479         -77.97          48.55         -41.64          113.3          18.15
    0.3043              -27.39          2.297          41.74          68.24          4.637         -7.477         -77.93          48.54         -41.67          113.3          18.15
     0.332              -27.39          2.303          41.74          68.23          4.632         -7.475         -77.89          48.53          -41.7          113.3          18.15
    0.3596               -27.4          2.309          41.73          68.23          4.625         -7.473         -77.85          48.51         -41.74          113.3          18.16
    0.3873               -27.4          2.315          41.72          68.22          4.618         -7.471          -77.8           48.5         -41.78          113.3          18.16
    0.4149              -27.41          2.322          41.71          68.21          4.611         -7.469         -77.75          48.49         -41.82          113.3          18.16
    0.4426              -27.41           2.33           41.7           68.2          4.603         -7.467          -77.7          48.47         -41.87          113.3          18.16
    0.4703              -27.41          2.338          41.69          68.19          4.594         -7.464         -77.64          48.45         -41.92          113.3          18.16
    0.4979              -27.42          2.347          41.68          68.18          4.584         -7.461         -77.57          48.43         -41.98          113.3          18.16
    0.5256              -27.43          2.357          41.67          68.17          4.574         -7.458          -77.5          48.41         -42.04          113.3          18.16
    0.5533              -27.43          2.368          41.66          68.16          4.562         -7.454         -77.42          48.39         -42.11          113.3          18.16
    0.5809              -27.44           2.38          41.64          68.15          4.549          -7.45         -77.33          48.36         -42.18          113.3          18.17
    0.6086              -27.45          2.394          41.62          68.13          4.535         -7.446         -77.23          48.33         -42.27          113.3          18.17
    0.6362              -27.46          2.408          41.61          68.11          4.519         -7.441         -77.13           48.3         -42.36          113.3          18.17
    0.6639              -27.47          2.425          41.59           68.1          4.502         -7.436         -77.01          48.27         -42.46          113.3          18.17
    0.6916              -27.48          2.443          41.56          68.08          4.483          -7.43         -76.87          48.23         -42.57          113.3          18.17
    0.7192              -27.49          2.463          41.54          68.05          4.461         -7.423         -76.73          48.18          -42.7          113.3          18.18
    0.7469              -27.51          2.486          41.51          68.03          4.436         -7.416         -76.56          48.14         -42.84          113.3          18.18
    0.7746              -27.52          2.512          41.48           68.0          4.409         -7.407         -76.37          48.08         -43.01          113.3          18.18
    0.8022              -27.54          2.542          41.44          67.96          4.377         -7.397         -76.15          48.02         -43.19          113.3          18.19
    0.8299              -27.56          2.575           41.4          67.93          4.341         -7.386         -75.91          47.94          -43.4          113.3          18.19
    0.8576              -27.58          2.614          41.35          67.88            4.3         -7.374         -75.63          47.86         -43.64          113.3           18.2
    0.8852              -27.61          2.659           41.3          67.83          4.253         -7.359          -75.3          47.77         -43.92          113.3           18.2
    0.9129              -27.64           2.71          41.23          67.77          4.198         -7.342         -74.93          47.66         -44.24          113.3          18.21
    0.9405              -27.68          2.771          41.16          67.71          4.133         -7.323         -74.49          47.53         -44.62          113.3          18.22
    0.9682              -27.72          2.842          41.07          67.63          4.057         -7.299         -73.96          47.37         -45.06          113.3          18.23
    0.9959              -27.77          2.927          40.96          67.53          3.966         -7.271         -73.35          47.19         -45.59          113.2          18.24
     1.024              -27.84          3.029          40.84          67.42          3.858         -7.238          -72.6          46.97         -46.22          113.2          18.25
     1.051              -27.91          3.152          40.68          67.28          3.727         -7.198         -71.71          46.71         -46.99          113.2          18.27
     1.079               -28.0          3.303           40.5          67.11          3.566         -7.149         -70.61          46.39         -47.93          113.2          18.29
     1.107              -28.12          3.488          40.27           66.9          3.369         -7.088         -69.26          45.99         -49.08          113.2          18.32
     1.134              -28.26           3.72          39.98          66.64          3.122         -7.012         -67.57           45.5         -50.53          113.2          18.35
     1.162              -28.44          4.011          39.62          66.31          2.811         -6.917         -65.45          44.87         -52.34          113.1          18.39
      1.19              -28.66          4.382          39.16           65.9          2.416         -6.796         -62.75          44.08         -54.65          113.1          18.44
     1.217              -28.95          4.856          38.57          65.36          1.911         -6.641         -59.29          43.06          -57.6          113.1           18.5
     1.245              -29.32          5.465          37.81          64.68          1.262         -6.442         -54.86          41.76          -61.4          113.0          18.59
     1.272               -29.8          6.243          36.85          63.81         0.4331         -6.188         -49.19           40.1         -66.24          112.9          18.69
       1.3               -30.4          7.221          35.64          62.71        -0.6089         -5.868         -42.07          38.01         -72.33          112.8          18.83
     1.328              -31.12          8.412          34.16          61.37         -1.879         -5.479         -33.38          35.46         -79.75          112.7          18.99
     1.355              -31.97          9.794          32.44          59.82         -3.351         -5.028         -23.32           32.5         -88.36          112.6          19.18
     1.383              -32.88          11.29          30.59          58.14         -4.945         -4.539         -12.42           29.3         -97.67          112.4          19.38
     1.411              -33.79          12.79          28.73          56.46         -6.538          -4.05         -1.528           26.1         -107.0          112.3          19.58
     1.438              -34.63          14.17          27.02          54.91          -8.01         -3.599          8.535          23.15         -115.6          112.1          19.77
     1.466              -35.36          15.36          25.54          53.57          -9.28         -3.209          17.22           20.6         -123.0          112.0          19.94
     1.494              -35.96          16.34          24.33          52.47         -10.32          -2.89          24.34           18.5         -129.1          111.9          20.07
     1.521              -36.43          17.11          23.37           51.6         -11.15         -2.636          30.01          16.84         -133.9          111.8          20.17
     1.549              -36.81          17.72          22.61          50.91          -11.8         -2.437          34.44          15.54         -137.7          111.8          20.26
     1.577              -37.09           18.2          22.02          50.38         -12.31         -2.282           37.9          14.52         -140.7          111.7          20.32
     1.604              -37.32          18.57          21.56          49.96          -12.7         -2.161           40.6          13.73         -143.0          111.7          20.37
     1.632               -37.5          18.86           21.2          49.64         -13.01         -2.065          42.72          13.11         -144.8          111.6          20.41
